<?xml version="1.0" encoding="utf-8"?>
<!-- Generator: Adobe Illustrator 15.0.2, SVG Export Plug-In . SVG Version: 6.00 Build 0)  -->
<!DOCTYPE svg PUBLIC "-//W3C//DTD SVG 1.1//EN" "http://www.w3.org/Graphics/SVG/1.1/DTD/svg11.dtd">
<svg version="1.1" id="レイヤー_1" xmlns="http://www.w3.org/2000/svg" xmlns:xlink="http://www.w3.org/1999/xlink" x="0px"
	 y="0px" width="199.748px" height="43.469px" viewBox="0 0 199.748 43.469" enable-background="new 0 0 199.748 43.469"
	 xml:space="preserve">
<path fill="#F0F0F0" d="M26.216,1.213L14.672,13.009L26.216,25.21h-3.485l-9.837-10.383L1.643,26.324V1.213h2.334v19.596
	L22.731,1.213H26.216z"/>
<path fill="#F0F0F0" d="M27.991,1.213h2.333V25.21h-2.333V1.213z"/>
<path fill="#F0F0F0" d="M49.399,8.244V25.21H33.007v-9.363h14.056v-5.271H33.007V8.244H49.399z M35.338,18.18v4.697h11.725V18.18
	H35.338z"/>
<path fill="#F0F0F0" d="M67.474,8.244v2.331h-8.896c-1.391,1.377-2.768,2.738-4.12,4.094V25.21h-2.333V8.244h2.333v3.485
	c0.972-1.154,1.95-2.315,2.939-3.485H67.474z"/>
<path fill="#F0F0F0" d="M86.134,8.244V25.21h-16.39v-9.363h14.06v-5.271h-14.06V8.244H86.134z M72.625,18.18v4.697h11.179V18.18
	H72.625z"/>
<path fill="#F0F0F0" d="M111.931,14.573L99.627,26.297V1.213h2.333v19.503l9.971-9.361l9.938,9.361V1.213h2.334v25.084
	L111.931,14.573z"/>
<path fill="#F0F0F0" d="M143.298,8.244V25.21h-16.391V8.244H143.298z M129.298,10.309l-0.002,12.828h11.727V10.309H129.298z"/>
<path fill="#F0F0F0" d="M161.351,8.244v2.331h-8.895c-1.395,1.377-2.766,2.738-4.121,4.094V25.21h-2.332V8.244h2.332v3.485
	c0.971-1.154,1.951-2.315,2.939-3.485H161.351z"/>
<path fill="#F0F0F0" d="M180.249,8.568l-8.328,9.021l8.043,7.62h-3.539l-6.088-5.906l-6.482,7.021V1.213h2.334v18.993l11.119-11.638
	H180.249z"/>
<path fill="#F0F0F0" d="M198.104,8.244v2.331h-14.059v5.271h14.059v9.363h-16.391v-2.333h14.059V18.18h-14.059V8.244H198.104z"/>
<rect x="1.51" y="28.455" fill="#F0F0F0" width="196.728" height="1"/>
<g>
	<path fill="#F0F0F0" d="M13.413,34.33c-0.05,0.486-0.378,0.243-0.72,0.861c-1.762,3.188-3.98,5.354-8.531,6.637
		c-0.075,0.025-0.134,0.036-0.183,0.036c-0.05,0-0.075-0.011-0.075-0.036c0-0.034,0.063-0.086,0.172-0.146
		c3.688-1.938,6.232-4.272,7.447-7.207c0.027-0.062,0.038-0.107,0.038-0.146s-0.023-0.048-0.073-0.048c-0.034,0-0.086,0-0.133,0.011
		c-0.537,0.086-1.229,0.196-1.594,0.196c-0.232,0-0.501-0.086-0.623-0.254c-0.874,1.471-2.217,2.797-4.346,3.759
		c-0.095,0.05-0.171,0.062-0.208,0.062c-0.021,0-0.021,0-0.021-0.012c0-0.039,0.049-0.086,0.145-0.172
		c1.666-1.339,2.938-3.299,3.458-4.674c0.062-0.172,0.099-0.327,0.099-0.451c0-0.338-0.185-0.563-0.379-0.655
		c-0.085-0.04-0.122-0.086-0.122-0.124c0-0.048,0.05-0.099,0.17-0.121c0.084-0.011,0.17-0.021,0.271-0.021
		c0.779,0,1.789,0.533,1.789,1.105v0.035c-0.027,0.27-0.195,0.195-0.416,0.535c-0.037,0.064-0.123,0.184-0.17,0.258h0.084
		c0.575,0,1.279-0.097,1.802-0.21c0.38-0.069,0.428-0.327,0.72-0.327c0.438,0,1.4,0.67,1.4,1.084L13.413,34.33L13.413,34.33z"/>
	<path fill="#F0F0F0" d="M36.477,35.754c-0.05,0.428-0.475,0.292-0.685,0.657c-1.545,2.763-3.527,4.588-7.241,5.808
		c-0.075,0.023-0.134,0.037-0.17,0.037c-0.038,0-0.061-0.014-0.061-0.037c0-0.025,0.061-0.086,0.18-0.16
		c2.948-1.578,5.178-4.088,5.966-6.185c0.024-0.069,0.037-0.12,0.037-0.156c0-0.075-0.048-0.097-0.195-0.097h-0.061
		c-1.789,0.047-3.312,0.4-4.672,0.704c-0.369,0.086-0.354,0.194-0.696,0.208h-0.085c-0.535-0.014-1.108-0.842-1.108-1.485v-0.034
		c0.011-0.136,0.049-0.195,0.097-0.195c0.049,0,0.097,0.035,0.16,0.108c0.291,0.317,0.608,0.365,1.242,0.365h0.376
		c0.949,0,2.652-0.159,4.615-0.353c0.424-0.039,0.596-0.33,0.851-0.33c0.46,0,1.45,0.765,1.45,1.123V35.754z M30.353,33.698
		c-0.815,0-1.426-0.479-1.426-1.048v-0.037c0.015-0.122,0.015-0.184,0.038-0.184c0.026,0,0.073,0.051,0.159,0.122
		c0.269,0.231,0.681,0.29,1.3,0.29h0.195c0.646,0,1.522-0.105,2.131-0.191c0.5-0.075,0.535-0.221,1.008-0.279
		c0.063-0.014,0.135-0.014,0.197-0.014c0.5,0,0.827,0.256,0.827,0.535c0,0.256-0.279,0.522-0.961,0.606
		c-0.803,0.101-2.214,0.196-3.273,0.196L30.353,33.698L30.353,33.698z"/>
	<path fill="#F0F0F0" d="M59.391,36.155c0.802,0,1.118,0.222,1.118,0.475c0,0.291-0.449,0.621-1.047,0.646
		c-0.391,0.016-0.704,0.025-1.01,0.025c-0.476,0-0.938-0.012-1.679-0.012c-0.888,0-2.156,0.012-4.26,0.086
		c-0.659,0.021-0.599,0.29-1.014,0.29h-0.023c-0.619,0-1.143-0.826-1.143-1.567c0-0.111,0.013-0.224,0.034-0.332
		c0.036-0.145,0.086-0.22,0.137-0.22c0.05,0,0.097,0.075,0.157,0.197c0.208,0.438,0.814,0.509,1.534,0.509h1.021
		c2.153,0,3.275-0.07,6.049-0.098L59.391,36.155L59.391,36.155z"/>
	<path fill="#F0F0F0" d="M82.989,35.754c-0.047,0.428-0.475,0.292-0.681,0.657c-1.546,2.763-3.529,4.588-7.242,5.808
		c-0.071,0.023-0.136,0.037-0.17,0.037c-0.037,0-0.063-0.014-0.063-0.037c0-0.025,0.063-0.086,0.183-0.16
		c2.948-1.578,5.174-4.088,5.965-6.185c0.023-0.069,0.038-0.12,0.038-0.156c0-0.075-0.049-0.097-0.195-0.097h-0.062
		c-1.788,0.047-3.311,0.4-4.674,0.704c-0.365,0.086-0.353,0.194-0.692,0.208H75.31c-0.538-0.014-1.106-0.842-1.106-1.485v-0.034
		c0.011-0.136,0.048-0.195,0.097-0.195c0.048,0,0.097,0.035,0.157,0.108c0.29,0.317,0.608,0.365,1.239,0.365h0.38
		c0.948,0,2.653-0.159,4.614-0.353c0.425-0.039,0.595-0.33,0.853-0.33c0.462,0,1.445,0.765,1.445,1.123V35.754L82.989,35.754z
		 M76.868,33.698c-0.816,0-1.424-0.479-1.424-1.048v-0.037c0.013-0.122,0.013-0.184,0.034-0.184c0.025,0,0.073,0.051,0.159,0.122
		c0.27,0.231,0.685,0.29,1.305,0.29h0.194c0.643,0,1.521-0.105,2.13-0.191c0.499-0.075,0.533-0.221,1.01-0.279
		c0.061-0.014,0.136-0.014,0.193-0.014c0.501,0,0.829,0.256,0.829,0.535c0,0.256-0.279,0.522-0.962,0.606
		c-0.806,0.101-2.217,0.196-3.275,0.196L76.868,33.698L76.868,33.698z"/>
	<path fill="#F0F0F0" d="M99.959,37.788c-0.535,0-0.997-0.438-0.997-0.976c0-0.573,0.462-0.996,0.997-0.996
		c0.536,0,0.999,0.423,0.999,0.996C100.958,37.35,100.495,37.788,99.959,37.788z"/>
	<path fill="#F0F0F0" d="M125.739,33.902c-0.074,0.367-0.465,0.38-0.572,0.73c-1.037,3.445-3.178,5.952-6.684,7.208
		c-0.047,0.013-0.086,0.021-0.109,0.021c-0.049,0-0.074-0.012-0.074-0.035c0-0.034,0.035-0.086,0.111-0.137
		c2.701-1.75,5.039-4.524,5.623-8.021c0-0.022,0.01-0.05,0.01-0.073c0-0.086-0.061-0.099-0.182-0.099h-0.021
		c-1.393,0.013-2.559,0.161-3.715,0.354c-0.256,0.047-0.475,0.071-0.656,0.071c-0.246,0-0.441-0.048-0.66-0.183
		c-0.01,0.24-0.01,0.462-0.01,0.668c0,1.277,0.109,1.769,0.109,2.266v0.135c-0.014,0.571-0.33,0.928-0.643,0.928
		c-0.307,0-0.637-0.332-0.66-1.101V36.58c0-0.232,0.059-0.475,0.086-0.807c0.012-0.119,0.012-0.266,0.012-0.437
		c0-0.487-0.021-1.104-0.072-1.522c-0.061-0.533-0.256-0.89-0.551-0.946c-0.084-0.015-0.121-0.05-0.121-0.086
		c0-0.038,0.053-0.075,0.121-0.111c0.1-0.049,0.211-0.062,0.32-0.062c0.475,0,1.082,0.293,1.229,0.549
		c1.713-0.086,3.271-0.17,5-0.29c0.344-0.027,0.344-0.269,0.646-0.269h0.023c0.414,0,1.438,0.752,1.438,1.24v0.063H125.739z"/>
	<path fill="#F0F0F0" d="M148.306,36.155c0.801,0,1.121,0.222,1.121,0.475c0,0.291-0.451,0.621-1.047,0.646
		c-0.391,0.016-0.707,0.025-1.012,0.025c-0.475,0-0.938-0.012-1.682-0.012c-0.889,0-2.154,0.012-4.262,0.086
		c-0.652,0.021-0.596,0.29-1.01,0.29h-0.021c-0.619,0-1.146-0.826-1.146-1.567c0-0.111,0.012-0.224,0.035-0.332
		c0.035-0.145,0.088-0.22,0.137-0.22c0.047,0,0.098,0.075,0.156,0.197c0.207,0.438,0.814,0.509,1.533,0.509h1.023
		c2.152,0,3.271-0.07,6.049-0.098L148.306,36.155L148.306,36.155z"/>
	<path fill="#F0F0F0" d="M171.688,34.33c-0.047,0.486-0.373,0.243-0.715,0.861c-1.768,3.188-3.982,5.354-8.533,6.637
		c-0.074,0.025-0.139,0.036-0.188,0.036c-0.047,0-0.066-0.011-0.066-0.036c0-0.034,0.061-0.086,0.172-0.146
		c3.684-1.938,6.229-4.272,7.443-7.207c0.023-0.062,0.037-0.107,0.037-0.146s-0.023-0.048-0.072-0.048c-0.037,0-0.084,0-0.135,0.011
		c-0.531,0.086-1.229,0.196-1.594,0.196c-0.229,0-0.502-0.086-0.619-0.254c-0.881,1.471-2.217,2.797-4.348,3.759
		c-0.1,0.05-0.172,0.062-0.207,0.062c-0.025,0-0.025,0-0.025-0.012c0-0.039,0.051-0.086,0.146-0.172
		c1.666-1.339,2.935-3.299,3.459-4.674c0.06-0.172,0.095-0.327,0.095-0.451c0-0.338-0.179-0.563-0.375-0.655
		c-0.084-0.04-0.123-0.086-0.123-0.124c0-0.048,0.051-0.099,0.172-0.121c0.086-0.011,0.17-0.021,0.269-0.021
		c0.776,0,1.787,0.533,1.787,1.105v0.035c-0.021,0.27-0.192,0.195-0.412,0.535c-0.039,0.064-0.121,0.184-0.17,0.258h0.084
		c0.573,0,1.278-0.097,1.804-0.21c0.377-0.069,0.426-0.327,0.719-0.327c0.438,0,1.396,0.67,1.396,1.084V34.33L171.688,34.33z"/>
	<path fill="#F0F0F0" d="M187.562,34.732c-0.43,0-1.088-0.694-1.088-1.393c0-0.105,0.016-0.217,0.051-0.324
		c0.035-0.086,0.063-0.136,0.102-0.136c0.033,0,0.068,0.037,0.105,0.123c0.207,0.364,0.621,0.463,1.084,0.463
		c0.17,0,0.365-0.015,0.547-0.036c0.768-0.076,1.568-0.209,2.568-0.38c0.572-0.099,0.525-0.362,0.854-0.362
		c0.426,0,1.277,0.652,1.277,1.105c0,0.021,0,0.063-0.012,0.098c-0.113,0.344-0.502,0.27-0.646,0.572
		c-0.51,1.061-1.07,1.946-1.803,2.855c1.693,0.367,3.266,1.184,3.871,2.315c0.107,0.193,0.146,0.376,0.146,0.548
		c0,0.461-0.326,0.793-0.682,0.793c-0.256,0-0.523-0.172-0.703-0.574c-0.537-1.217-1.561-2.25-2.715-2.979
		c-1.416,1.654-2.863,2.788-5.604,3.771c-0.082,0.023-0.146,0.037-0.191,0.037c-0.05,0-0.076-0.014-0.076-0.037
		c0-0.033,0.063-0.098,0.193-0.172c3.031-1.644,5.49-4.636,6.369-7.107c0.021-0.069,0.035-0.119,0.035-0.155
		c0-0.05-0.021-0.062-0.07-0.062c-0.051,0-0.102,0.012-0.172,0.021c-0.586,0.125-1.621,0.354-2.566,0.598
		c-0.404,0.099-0.486,0.379-0.854,0.418H187.562L187.562,34.732z"/>
</g>
<path fill="#F0F0F0" d="M1.643,26.324"/>
</svg>
